# xmcd
#
# Track frame offsets:
#	150
#	16860
#	34082
#	47140
#	63717
#	82150
#	97387
#	111115
#	130337
#	145130
#	167390
#	182417
#	185262
#	186835
#	188880
#	193575
#	199350
#	203795
#	204755
#
# Disc length: 2737
#
# Revision: 1
# Processed by: cddbd v1.5.1PL0 Copyright (c) Steve Scherf et al.
# Submitted via: VisiTrax 2.9.5.180 - For more info visit www.synapsa.com
# Normalized: r0:DSETVAR1
#
DISCID=140aaf13
DTITLE=Various Artist - CDX 126 January 1996
DYEAR=1996
DGENRE=
TTITLE0=M C Potts - Back when
TTITLE1=Lee roy Parnell - Heart's desire
TTITLE2=Don Cox - I never met a woman I didn't like
TTITLE3=Patricia Conroy - Keep me rockin'
TTITLE4=Bellamy Brothers - Old hippie (the sequel)
TTITLE5=Brent Lamb - Real life love
TTITLE6=Frazier River - She got what she deserves
TTITLE7=Garth Brooks - The beaches of Cheyenne
TTITLE8=Curtis Day - The truth is hard to swallow
TTITLE9=Wynonna - To be loved by you
TTITLE10=Tim McGraw - I like it, I love it
TTITLE11=Brent Lamb - Interview
TTITLE12=Brent Lamb - Interview
TTITLE13=Brent Lamb - Interview
TTITLE14=Brent Lamb - Interview
TTITLE15=Brent Lamb - Interview
TTITLE16=Brent Lamb - Interview
TTITLE17=Brent Lamb - Liner
TTITLE18=Brent Lamb - Liner
EXTD=
EXTT0=
EXTT1=
EXTT2=
EXTT3=
EXTT4=
EXTT5=
EXTT6=
EXTT7=
EXTT8=
EXTT9=
EXTT10=
EXTT11=
EXTT12=
EXTT13=
EXTT14=
EXTT15=
EXTT16=
EXTT17=
EXTT18=
PLAYORDER=
